<svg xmlns="http://www.w3.org/2000/svg" xmlns:xlink="http://www.w3.org/1999/xlink" width="32" height="32" preserveAspectRatio="xMidYMid meet" viewBox="0 0 32 32" style="-ms-transform: rotate(360deg); -webkit-transform: rotate(360deg); transform: rotate(360deg);"><path d="M22.12 24.438l-3.36-7.847c-.33-.768-.6-2.08-.6-2.916s.513-1.52 1.14-1.52s1.14-.514 1.14-1.14s-.684-1.14-1.52-1.14h-6.84c-.836 0-1.52.512-1.52 1.14s.513 1.14 1.14 1.14s1.14.684 1.14 1.52s-.27 2.148-.6 2.917L8.88 24.44c-.33.768-.6 1.74-.6 2.157s.342 1.103.76 1.52s1.444.76 2.28.76h8.36c.835 0 1.86-.34 2.28-.76s.76-1.102.76-1.52s-.27-1.39-.6-2.157zM16.583 7.625a1.082 1.082 0 1 0 2.166 0a1.083 1.083 0 1 0-2.166.001zm-2.915.167a.5.5 0 1 0 0-1a.5.5 0 0 0 0 1zm1.917-2.5a1.584 1.584 0 1 0-.002-3.164a1.584 1.584 0 0 0 .002 3.162z" fill="#626262"/><rect x="0" y="0" width="32" height="32" fill="rgba(0, 0, 0, 0)" /></svg>